<?xml version="1.0" standalone="no"?>
<!DOCTYPE svg PUBLIC "-//W3C//DTD SVG 20010904//EN"
 "http://www.w3.org/TR/2001/REC-SVG-20010904/DTD/svg10.dtd">
<svg version="1.0" xmlns="http://www.w3.org/2000/svg"
 width="1205.000000pt" height="1205.000000pt" viewBox="0 0 1205.000000 1205.000000"
 preserveAspectRatio="xMidYMid meet">
<metadata>
Created by potrace 1.14, written by Peter Selinger 2001-2017
</metadata>
<g transform="translate(0.000000,1205.000000) scale(0.100000,-0.100000)"
fill="#000000" stroke="none">
<path d="M5855 10479 c-44 -4 -90 -5 -102 -2 -12 3 -56 -3 -98 -12 -41 -10
-88 -15 -102 -12 -15 3 -38 0 -52 -6 -15 -6 -35 -12 -46 -13 -11 -1 -40 -9
-65 -18 -52 -18 -84 -22 -60 -6 8 5 11 13 6 17 -4 4 -13 0 -20 -9 -14 -20 -66
-35 -66 -20 0 6 10 13 23 15 l22 4 -23 2 c-12 0 -41 -11 -63 -26 -33 -21 -55
-28 -103 -29 -79 -2 -78 -2 -71 -14 3 -5 -3 -10 -15 -10 -12 0 -38 -9 -58 -19
-53 -28 -161 -71 -178 -71 -8 0 -14 -5 -14 -11 0 -6 -6 -9 -14 -6 -8 3 -32 -7
-54 -23 -55 -39 -142 -83 -142 -70 0 5 6 10 13 10 8 0 8 3 -2 9 -10 7 -20 2
-33 -15 -11 -13 -28 -24 -39 -24 -11 0 -28 -7 -36 -16 -9 -8 -25 -13 -35 -10
-14 3 -31 -6 -54 -30 -37 -37 -54 -43 -54 -19 0 18 -16 20 -26 3 -4 -6 -2 -14
4 -16 7 -2 12 -9 12 -15 0 -8 -3 -8 -12 1 -14 14 -49 -2 -44 -21 1 -6 1 -9 -1
-5 -6 9 -39 -9 -82 -45 -27 -23 -41 -28 -72 -25 -33 3 -38 1 -34 -13 4 -12 -1
-19 -15 -23 -11 -3 -29 -9 -40 -12 -14 -4 -20 -1 -20 10 0 9 6 16 13 16 8 0
14 7 14 16 0 11 -7 14 -21 10 -12 -3 -27 -6 -33 -6 -7 0 -13 -11 -13 -25 0
-32 -17 -32 -42 1 l-20 25 -16 -22 -15 -22 -18 24 c-23 29 -26 7 -5 -33 13
-25 13 -28 -1 -28 -9 0 -13 -6 -10 -14 4 -10 0 -12 -14 -9 -10 3 -19 10 -19
17 0 6 -10 -4 -22 -22 -18 -28 -19 -35 -7 -44 10 -6 2 -8 -26 -4 -36 6 -38 5
-22 -8 17 -13 16 -15 -17 -35 -29 -18 -38 -20 -60 -10 -32 15 -46 4 -20 -16
16 -12 16 -14 3 -15 -9 0 -33 7 -52 15 -46 19 -53 19 -37 0 7 -8 9 -22 6 -31
-5 -14 -4 -15 8 -5 12 10 16 8 21 -9 8 -26 4 -31 -26 -33 -13 0 -27 -5 -30
-10 -4 -5 -15 -4 -28 2 -21 12 -31 -2 -10 -14 6 -5 3 -12 -9 -21 -15 -10 -20
-24 -19 -52 2 -39 -3 -41 -50 -26 -14 4 -23 2 -23 -5 0 -6 10 -11 23 -11 29 0
45 -12 62 -43 17 -34 4 -34 -31 -2 -28 26 -44 32 -44 15 0 -5 5 -10 10 -10 6
0 10 -4 10 -10 0 -17 -22 -11 -49 13 l-26 22 23 -26 c25 -29 29 -44 8 -36 -8
3 -17 3 -20 0 -9 -9 26 -32 49 -33 11 0 26 -9 33 -21 13 -20 12 -21 -20 -14
l-33 6 32 -21 c33 -22 36 -40 6 -40 -12 0 -13 -3 -4 -14 9 -11 7 -15 -11 -20
-19 -5 -20 -8 -8 -16 8 -5 10 -10 4 -10 -6 0 -21 9 -34 20 -28 24 -60 26 -60
4 0 -10 6 -14 15 -10 9 3 15 0 15 -9 0 -16 -37 -20 -59 -6 -18 12 -51 2 -51
-16 0 -8 -5 -11 -10 -8 -6 4 -8 11 -5 16 3 5 -1 6 -9 3 -25 -9 -19 -40 12 -63
15 -12 34 -26 42 -33 15 -13 20 -15 55 -17 39 -3 -8 -21 -55 -21 -47 -1 -41
-11 13 -24 19 -4 26 -3 22 4 -3 5 -1 10 4 10 15 0 14 -23 -1 -38 -9 -9 -8 -12
4 -12 9 0 20 5 24 11 5 8 10 6 16 -5 5 -9 13 -14 19 -11 5 4 9 -3 9 -15 0 -17
-4 -20 -20 -16 -11 3 -29 9 -41 12 -16 4 -20 2 -17 -12 3 -20 2 -20 -64 -24
l-43 -3 45 -6 c28 -4 55 -16 73 -33 16 -15 35 -24 43 -21 8 3 14 -1 14 -10 0
-8 -7 -17 -15 -21 -8 -3 -15 -12 -15 -21 0 -8 -9 -15 -20 -15 -11 0 -20 -4
-20 -10 0 -5 7 -10 15 -10 8 0 15 -7 15 -15 0 -11 -11 -15 -41 -15 -24 0 -38
-4 -34 -10 3 -5 18 -10 33 -10 15 0 34 -5 42 -11 11 -8 1 -9 -37 -5 -29 3 -55
1 -58 -3 -7 -12 20 -21 63 -21 26 0 33 -3 25 -11 -6 -6 -22 -12 -36 -12 -14
-1 -23 -5 -20 -9 2 -5 -1 -9 -6 -9 -26 -3 -30 -4 -36 -11 -4 -4 -13 -4 -21 -1
-9 3 -14 -1 -14 -12 0 -11 5 -15 14 -12 35 14 86 19 86 9 0 -6 -4 -13 -9 -17
-6 -3 -17 -20 -26 -37 -11 -24 -12 -33 -3 -39 9 -6 9 -11 -1 -23 -9 -11 -10
-20 -2 -35 19 -35 14 -52 -14 -45 -15 4 -25 2 -25 -5 0 -6 14 -11 30 -11 30 0
40 -13 19 -25 -6 -4 -8 -22 -4 -44 5 -33 3 -39 -19 -49 -14 -6 -26 -16 -26
-22 0 -7 6 -7 20 0 30 16 45 2 20 -20 -11 -9 -20 -20 -20 -24 0 -6 46 -28 63
-30 4 -1 7 -4 7 -8 0 -5 0 -12 0 -18 0 -5 -7 -7 -15 -4 -11 5 -15 -1 -15 -20
0 -19 5 -26 19 -26 23 0 29 -14 25 -58 -1 -17 2 -35 7 -38 5 -3 7 -22 4 -42
-5 -30 -4 -33 5 -19 18 28 33 21 27 -13 -5 -20 -3 -30 6 -30 6 0 4 -5 -6 -11
-18 -10 -18 -12 -1 -30 10 -11 17 -33 17 -49 0 -27 3 -30 34 -30 34 0 45 -16
18 -26 -8 -4 -15 -10 -15 -15 0 -5 7 -9 15 -9 17 0 20 -16 5 -25 -7 -4 -7 -13
0 -26 6 -10 7 -19 3 -20 -4 0 2 -4 14 -9 16 -7 21 -14 16 -26 -5 -14 -3 -16
11 -11 15 6 17 3 12 -17 -3 -14 -2 -28 4 -31 6 -3 7 -18 4 -32 -6 -23 -4 -25
16 -18 22 7 23 5 17 -34 -4 -31 -2 -41 9 -41 8 0 14 -5 14 -10 0 -6 10 -15 23
-20 20 -8 20 -9 2 -10 -17 -1 -18 -2 -5 -13 9 -7 16 -32 17 -62 3 -67 14 -134
23 -140 10 -6 31 79 34 142 1 27 5 54 9 60 4 6 4 18 1 26 -3 8 -1 18 5 22 6 3
11 27 11 53 0 26 5 65 11 87 6 22 11 47 13 55 1 9 5 20 9 26 6 10 18 77 20
112 0 6 4 12 9 12 5 0 6 10 3 22 -6 16 -4 20 8 15 13 -5 15 0 10 29 -4 22 -2
34 6 34 6 0 11 10 11 22 0 24 57 150 73 160 7 4 7 11 -2 22 -8 9 -9 16 -3 16
5 0 9 8 8 18 0 9 5 16 12 14 6 -1 12 5 12 13 0 8 -5 15 -12 15 -6 0 -8 3 -5 6
3 4 1 16 -5 27 -9 17 -8 19 8 12 11 -4 25 -8 31 -8 10 0 10 -4 1 -14 -8 -11
-7 -12 6 -7 9 3 16 12 16 20 0 8 8 14 17 14 13 0 14 3 5 12 -19 19 -14 28 12
18 39 -15 57 28 22 52 -6 4 4 6 22 3 27 -3 33 -1 28 12 -4 10 1 17 15 20 15 4
20 12 16 29 -3 16 1 25 13 29 9 3 17 12 17 20 0 11 -4 12 -13 4 -8 -7 -14 -6
-20 2 -4 8 -3 9 4 5 11 -6 16 6 13 27 0 4 6 7 15 7 9 0 12 5 8 11 -4 7 -1 10
6 7 7 -2 24 6 37 18 15 14 31 20 45 16 13 -3 19 -1 15 5 -9 15 47 73 70 73 10
0 24 5 31 12 9 9 12 9 12 -1 0 -7 5 -9 10 -6 6 4 8 10 6 14 -3 4 4 18 14 29
15 16 28 20 49 16 23 -5 32 -2 42 14 7 11 19 18 26 15 7 -3 13 0 13 6 0 8 5 9
19 1 28 -15 49 -14 33 2 -18 18 -14 27 10 23 29 -6 58 3 55 17 -1 6 4 13 12
16 10 3 12 0 8 -11 -3 -9 -2 -19 3 -22 6 -4 10 -1 10 6 0 7 7 4 15 -7 14 -18
14 -18 15 4 0 13 4 20 10 17 14 -9 52 4 45 16 -3 5 1 6 10 3 9 -4 14 -12 11
-19 -7 -20 33 -26 44 -7 6 11 9 12 10 4 0 -7 5 -10 10 -7 6 4 8 11 5 16 -4 5
-1 9 5 9 7 0 10 -6 7 -14 -4 -9 1 -16 11 -19 24 -5 72 20 72 38 0 24 37 18 43
-7 l6 -23 21 23 c25 27 34 28 27 3 -5 -19 21 -35 51 -32 14 2 17 -16 2 -21 -6
-2 -6 -8 0 -18 8 -13 10 -12 10 3 0 12 4 16 12 11 18 -11 48 -12 54 -2 3 4 -6
8 -20 8 -14 0 -26 4 -26 9 0 5 11 8 25 7 14 0 25 -4 25 -8 0 -5 9 -8 20 -8 21
0 27 -15 10 -25 -12 -7 -4 -25 11 -25 5 0 9 11 9 24 0 35 13 39 46 14 l27 -22
-5 22 c-4 15 -2 22 8 22 8 0 17 -14 21 -32 6 -31 7 -31 13 -9 7 32 49 62 91
66 19 2 36 4 38 4 2 1 -1 7 -8 14 -11 14 3 37 23 37 5 0 18 8 28 17 15 13 19
14 16 3 -2 -7 5 -16 15 -18 12 -2 17 3 18 17 1 12 3 26 4 31 1 6 3 15 4 21 0
6 8 9 16 5 8 -3 15 -1 15 4 0 6 5 10 11 10 8 0 8 -5 -1 -15 -7 -8 -16 -12 -21
-9 -5 3 -9 0 -9 -6 0 -8 14 -10 45 -7 24 3 44 2 42 -3 -1 -4 2 -10 8 -12 5 -1
12 11 15 27 4 20 11 29 21 26 8 -3 26 -5 42 -4 15 0 27 -4 27 -8 0 -5 7 -6 15
-3 8 4 15 12 15 19 0 8 9 10 25 7 14 -2 25 -8 25 -12 0 -5 14 -13 31 -19 17
-6 28 -15 24 -21 -3 -5 0 -10 8 -10 7 0 23 -9 35 -20 12 -12 23 -16 27 -10 3
6 15 10 27 10 17 0 18 -3 8 -15 -7 -8 -16 -13 -20 -10 -5 3 -11 1 -14 -4 -3
-5 10 -9 30 -8 21 1 41 -5 48 -13 10 -14 36 -25 36 -16 0 3 -7 12 -16 21 -25
25 -10 28 19 4 16 -12 27 -15 27 -9 0 8 9 10 28 5 48 -13 57 -13 71 -1 11 8
13 8 7 -1 -4 -8 -1 -13 8 -14 29 -3 34 -4 42 -11 4 -4 13 -3 20 2 8 8 16 6 27
-5 10 -10 18 -12 22 -5 5 8 12 7 23 -1 10 -7 4 0 -11 15 -25 25 -32 27 -54 17
-15 -7 -31 -8 -40 -2 -24 13 0 23 63 26 45 3 52 1 47 -13 -5 -16 -5 -16 12 -1
16 16 19 16 36 1 15 -13 16 -19 6 -31 -10 -12 -9 -13 12 -2 17 9 20 16 12 24
-16 16 -14 37 4 37 8 0 15 -5 15 -11 0 -22 33 -39 49 -26 12 9 13 9 7 0 -5 -9
2 -13 23 -13 17 0 31 -4 31 -10 0 -5 -6 -10 -12 -10 -9 0 -8 -3 2 -9 8 -6 18
-7 22 -5 4 3 8 0 8 -7 0 -7 8 -5 20 6 18 17 20 17 14 2 -4 -12 -1 -17 10 -17
9 0 16 -7 16 -15 0 -9 9 -15 25 -15 14 0 28 -7 31 -15 4 -10 15 -12 36 -8 23
5 29 3 24 -6 -11 -17 44 -63 68 -57 14 4 17 0 14 -19 -4 -16 -1 -22 8 -18 10
4 11 -2 4 -26 -8 -30 2 -52 15 -31 4 6 11 8 16 4 5 -3 6 -10 3 -16 -4 -7 -2
-8 5 -4 6 4 9 11 6 16 -3 4 2 10 10 14 8 3 15 1 15 -4 0 -6 10 -10 23 -10 12
0 18 -4 12 -8 -5 -4 -11 -14 -13 -24 -2 -12 3 -15 17 -11 16 4 19 1 14 -16 -4
-15 -1 -21 11 -21 9 0 16 -4 16 -10 0 -5 -4 -10 -10 -10 -5 0 -10 -5 -10 -12
0 -6 9 -3 20 7 16 15 22 16 35 5 9 -7 14 -19 11 -26 -6 -15 10 -27 36 -29 25
-2 32 -11 24 -31 -3 -9 -13 -14 -20 -11 -8 3 -17 -1 -20 -9 -3 -8 -2 -12 3 -9
5 3 12 1 16 -4 3 -6 12 -8 19 -5 7 3 19 -2 26 -11 10 -12 10 -15 -1 -15 -8 0
-5 -6 7 -15 14 -11 16 -15 4 -15 -12 0 -11 -3 3 -11 9 -5 17 -17 17 -26 0 -24
23 -83 32 -83 4 0 8 -7 8 -16 0 -8 4 -12 10 -9 15 10 60 -41 60 -68 0 -14 7
-28 16 -31 10 -4 14 -12 10 -22 -4 -11 -2 -15 7 -11 8 3 23 -11 38 -34 13 -21
28 -39 32 -39 5 0 7 -7 4 -15 -7 -17 9 -30 18 -15 3 5 17 10 31 10 21 0 23 -2
12 -20 -10 -16 -9 -23 11 -44 13 -14 33 -28 43 -32 12 -4 18 -12 15 -23 -4
-17 14 -41 33 -41 6 0 8 -4 5 -10 -3 -5 3 -10 13 -10 11 0 25 -7 32 -15 10
-12 10 -15 -4 -15 -26 0 -19 -27 9 -34 14 -4 25 -14 25 -22 0 -9 6 -14 13 -11
8 3 18 -7 26 -24 7 -15 18 -26 25 -23 13 5 36 -35 36 -64 0 -14 2 -15 9 -2 6
8 7 18 5 22 -3 4 -1 8 5 8 6 0 8 -12 5 -29 -5 -22 -1 -32 17 -45 13 -9 19 -16
14 -16 -6 0 -1 -7 10 -16 12 -9 16 -18 10 -22 -16 -12 -14 -39 4 -38 12 1 15
-6 13 -26 -1 -16 1 -28 7 -28 5 0 9 -6 8 -12 0 -7 1 -24 2 -38 2 -23 3 -24 11
-5 6 14 9 16 10 5 1 -8 4 -26 6 -40 3 -14 5 -35 6 -47 0 -12 5 -20 12 -17 12
5 15 -94 3 -113 -3 -5 2 -19 13 -31 13 -13 15 -22 8 -24 -8 -3 -7 -11 5 -28
15 -22 15 -24 -1 -37 -9 -8 -12 -12 -6 -9 16 8 39 -20 24 -29 -13 -8 -13 -25
0 -25 6 0 10 7 10 15 0 13 17 20 41 17 4 -1 5 8 2 18 -3 11 -10 20 -15 20 -5
0 -6 5 -3 10 4 6 12 10 18 9 7 -1 19 -1 27 0 13 1 13 2 0 11 -10 6 -11 10 -2
10 7 0 12 14 12 34 0 34 20 62 35 48 5 -4 5 -1 1 6 -4 6 -2 12 3 12 6 0 11 7
11 16 0 8 5 12 10 9 15 -9 12 11 -4 24 -17 14 -5 68 14 63 9 -2 11 6 7 28 -4
17 -2 30 3 30 6 0 10 15 10 33 0 18 7 43 16 55 9 13 14 29 11 36 -8 20 13 110
28 121 7 6 11 24 9 42 -2 23 2 35 13 42 14 8 15 12 4 25 -10 12 -11 16 -1 16
9 0 11 9 7 30 -5 23 -3 28 9 23 9 -3 24 4 35 16 14 15 16 21 6 21 -7 0 -21 16
-30 35 -11 22 -13 35 -6 35 7 0 9 11 6 30 -5 23 -3 30 9 30 8 0 13 4 10 9 -3
5 1 14 9 21 12 10 13 16 4 26 -11 13 -6 18 14 15 10 -1 9 41 -3 59 -6 9 -5 17
2 21 9 6 8 12 -1 23 -11 13 -11 16 3 16 19 0 21 21 4 38 -9 9 -8 12 6 12 15 0
17 5 12 26 -4 14 -3 23 2 20 10 -6 8 61 -2 71 -12 12 -6 41 9 47 14 5 14 9 2
33 -14 29 -12 63 3 63 5 0 6 7 3 17 -4 11 -3 14 5 9 25 -15 3 59 -24 80 l-26
22 27 -6 c20 -3 26 -1 21 7 -4 6 0 11 10 11 16 0 16 1 -2 15 -10 8 -14 15 -9
15 6 0 -3 9 -20 20 -21 14 -25 20 -12 20 9 0 17 -5 17 -12 0 -6 2 -9 5 -6 9 9
-25 78 -38 78 -6 0 -4 5 6 11 12 7 15 15 9 22 -5 7 -12 31 -15 55 -4 35 -2 42
9 38 18 -7 17 4 -1 28 -8 11 -15 34 -15 52 0 18 -5 34 -11 36 -8 3 -6 10 5 21
14 13 14 17 3 17 -8 0 -24 9 -37 20 -13 11 -19 20 -14 20 6 0 15 -5 22 -12 9
-9 12 -9 12 0 0 7 -7 15 -16 19 -15 6 -15 7 1 19 21 16 10 38 -17 31 -16 -5
-17 -3 -7 9 10 12 8 16 -9 21 -12 3 -22 12 -22 21 0 13 3 13 19 -2 13 -12 21
-14 26 -6 4 6 -1 17 -11 24 -9 7 -14 18 -10 24 5 8 1 10 -10 5 -13 -5 -15 -2
-9 16 3 12 3 21 -2 20 -23 -4 -35 2 -29 16 3 10 -3 17 -19 21 -15 4 -22 11
-18 20 3 8 -2 17 -11 20 -9 3 -16 12 -16 20 0 8 -5 14 -10 14 -6 0 -16 11 -22
25 -6 14 -18 25 -25 25 -8 0 -11 5 -8 11 4 6 -1 17 -11 24 -11 8 -15 15 -11
15 5 0 -17 20 -50 44 -32 24 -91 75 -132 114 -74 69 -74 69 -53 88 21 18 21
18 -28 35 -45 16 -80 39 -80 53 0 2 8 7 18 9 16 4 16 5 0 6 -10 0 -18 6 -18
12 0 5 -4 7 -10 4 -5 -3 -10 -2 -10 3 0 5 -11 21 -25 34 l-25 26 22 6 c18 6
19 9 8 13 -88 35 -102 44 -90 57 9 12 5 15 -27 18 -30 2 -37 7 -35 21 2 11 -4
17 -18 17 -11 0 -20 4 -20 9 0 5 -20 17 -46 27 -27 10 -41 20 -33 24 7 5 -1
14 -24 25 -20 9 -35 22 -34 28 1 7 -4 11 -10 10 -7 -2 -18 6 -25 16 -6 10 -18
17 -25 14 -7 -3 -13 0 -13 7 0 8 -9 11 -25 8 -14 -3 -25 -1 -25 3 0 5 -7 9
-15 9 -8 0 -15 7 -15 15 0 9 -6 12 -17 8 -12 -5 -15 -2 -10 10 4 12 -3 19 -29
27 -19 7 -34 18 -34 27 0 13 2 14 18 2 15 -13 16 -12 4 3 -8 10 -17 17 -20 16
-31 -4 -62 4 -62 16 0 8 -15 17 -35 20 -41 8 -115 46 -115 59 0 5 -7 6 -16 3
-12 -4 -14 -1 -9 14 6 20 -5 25 -48 22 -28 -3 -63 18 -47 28 8 5 2 10 -19 15
-17 4 -29 10 -26 15 3 4 -3 6 -12 4 -10 -3 -46 2 -80 9 -34 8 -64 12 -67 9 -3
-3 -14 2 -24 11 -10 9 -30 18 -44 19 -16 1 -24 7 -21 15 3 7 -2 13 -11 13 -9
0 -16 -4 -16 -10 0 -14 -39 -12 -54 3 -7 7 -11 18 -8 25 2 8 -8 12 -30 12 -43
1 -116 7 -203 17 -38 4 -106 5 -150 2z m845 -203 c0 -2 -7 -6 -15 -10 -8 -3
-15 -1 -15 4 0 6 7 10 15 10 8 0 15 -2 15 -4z m398 -438 c19 -19 14 -30 -8
-18 -11 6 -20 15 -20 20 0 14 14 12 28 -2z m182 -117 c0 -5 -9 -7 -20 -4 -11
3 -20 7 -20 9 0 2 9 4 20 4 11 0 20 -4 20 -9z m110 -135 c0 -3 -4 -8 -10 -11
-5 -3 -10 -1 -10 4 0 6 5 11 10 11 6 0 10 -2 10 -4z m-3910 -26 c0 -5 -2 -10
-4 -10 -3 0 -8 5 -11 10 -3 6 -1 10 4 10 6 0 11 -4 11 -10z m36 -66 c17 7 19
-10 2 -20 -6 -4 -14 -2 -16 4 -2 7 -9 12 -15 12 -21 0 -40 17 -32 30 5 8 13 5
27 -10 11 -12 26 -19 34 -16z m3974 -36 c0 -19 -2 -20 -10 -8 -13 19 -13 30 0
30 6 0 10 -10 10 -22z m310 -198 c0 -5 -2 -10 -4 -10 -3 0 -8 5 -11 10 -3 6
-1 10 4 10 6 0 11 -4 11 -10z m10 -32 c0 -4 -4 -8 -9 -8 -6 0 -12 4 -15 8 -3
5 1 9 9 9 8 0 15 -4 15 -9z m-4519 -70 c10 -19 9 -20 -17 -14 -16 4 -37 8 -46
9 -17 1 -23 9 -14 18 3 2 18 5 35 6 22 2 34 -4 42 -19z m4744 -56 c-3 -3 -11
0 -18 7 -9 10 -8 11 6 5 10 -3 15 -9 12 -12z m-4646 -66 c23 -13 23 -13 2 -19
-14 -3 -21 0 -21 8 0 8 -8 16 -17 18 -13 3 -13 5 -3 5 8 1 26 -5 39 -12z
m2138 -92 c-3 -3 -12 -4 -19 -1 -8 3 -5 6 6 6 11 1 17 -2 13 -5z m56 -1 c-7
-2 -13 -11 -13 -19 0 -8 -5 -14 -10 -14 -7 0 -7 6 0 20 6 11 16 20 23 19 9 0
9 -2 0 -6z m-128 -13 c3 -5 1 -10 -4 -10 -6 0 -11 5 -11 10 0 6 2 10 4 10 3 0
8 -4 11 -10z m5 -54 c0 -3 -4 -8 -10 -11 -5 -3 -10 -1 -10 4 0 6 5 11 10 11 6
0 10 -2 10 -4z m660 -40 c0 -9 -30 -14 -35 -6 -4 6 3 10 14 10 12 0 21 -2 21
-4z m-1307 -23 c3 -5 -1 -14 -8 -20 -11 -10 -13 -9 -12 7 1 20 12 26 20 13z
m-423 -93 c0 -5 -7 -10 -15 -10 -8 0 -15 5 -15 10 0 6 7 10 15 10 8 0 15 -4
15 -10z m2445 -150 c17 -7 17 -9 3 -9 -10 -1 -18 -5 -18 -9 0 -17 -26 -8 -27
10 -2 19 10 22 42 8z m-3551 -61 c3 -3 -4 -10 -14 -17 -16 -10 -21 -9 -29 6
-8 15 -5 17 15 17 13 -1 26 -4 28 -6z m593 -184 c0 -8 -6 -15 -14 -15 -17 0
-17 17 0 23 6 3 12 6 13 6 0 1 1 -6 1 -14z m-27 -55 c0 -5 -4 -10 -10 -10 -5
0 -10 5 -10 10 0 6 5 10 10 10 6 0 10 -4 10 -10z m3270 -80 c0 -5 -4 -10 -10
-10 -5 0 -10 5 -10 10 0 6 5 10 10 10 6 0 10 -4 10 -10z m220 -294 c0 -3 -4
-8 -10 -11 -5 -3 -10 -1 -10 4 0 6 5 11 10 11 6 0 10 -2 10 -4z"/>
<path d="M3975 9940 c3 -5 8 -10 11 -10 2 0 4 5 4 10 0 6 -5 10 -11 10 -5 0
-7 -4 -4 -10z"/>
<path d="M3637 9741 c3 -12 9 -21 14 -21 14 0 11 16 -5 29 -12 10 -13 8 -9 -8z"/>
<path d="M7693 9563 c-15 -5 -17 -23 -4 -23 5 0 11 7 15 15 3 8 4 15 3 14 -1
0 -8 -3 -14 -6z"/>
<path d="M7768 9513 c7 -3 16 -2 19 1 4 3 -2 6 -13 5 -11 0 -14 -3 -6 -6z"/>
<path d="M3226 9004 c-5 -14 -4 -15 9 -4 17 14 19 20 6 20 -5 0 -12 -7 -15
-16z"/>
<path d="M5600 8910 c0 -5 5 -10 11 -10 5 0 7 5 4 10 -3 6 -8 10 -11 10 -2 0
-4 -4 -4 -10z"/>
<path d="M5720 8914 c0 -15 27 -30 44 -24 16 5 15 7 -9 18 -29 13 -35 15 -35
6z"/>
<path d="M5604 8865 c-10 -8 -14 -15 -8 -15 6 0 17 7 24 15 16 19 9 19 -16 0z"/>
<path d="M5396 8792 c-3 -5 1 -9 9 -9 8 0 12 4 9 9 -3 4 -7 8 -9 8 -2 0 -6 -4
-9 -8z"/>
<path d="M5530 8796 c0 -2 7 -7 16 -10 8 -3 12 -2 9 4 -6 10 -25 14 -25 6z"/>
<path d="M4868 8763 c7 -3 16 -2 19 1 4 3 -2 6 -13 5 -11 0 -14 -3 -6 -6z"/>
<path d="M5140 8709 c0 -5 5 -7 10 -4 6 3 10 8 10 11 0 2 -4 4 -10 4 -5 0 -10
-5 -10 -11z"/>
<path d="M4300 8666 c0 -2 6 -9 13 -15 10 -8 14 -7 14 4 0 8 -6 15 -14 15 -7
0 -13 -2 -13 -4z"/>
<path d="M6840 8520 c0 -5 5 -10 11 -10 5 0 7 5 4 10 -3 6 -8 10 -11 10 -2 0
-4 -4 -4 -10z"/>
<path d="M3860 8189 c0 -5 5 -7 10 -4 6 3 10 8 10 11 0 2 -4 4 -10 4 -5 0 -10
-5 -10 -11z"/>
<path d="M3755 7970 c-3 -5 -1 -10 4 -10 6 0 11 5 11 10 0 6 -2 10 -4 10 -3 0
-8 -4 -11 -10z"/>
<path d="M3890 7500 c0 -14 -50 -61 -59 -55 -5 2 -14 -9 -21 -25 -7 -16 -22
-32 -34 -36 -20 -6 -86 -67 -86 -79 0 -3 -9 -25 -21 -50 -25 -53 -19 -66 24
-58 31 6 32 6 15 -14 -20 -22 -25 -44 -6 -25 18 18 30 14 23 -7 -6 -21 0 -24
65 -36 19 -4 43 -9 53 -11 12 -4 17 0 17 15 0 11 -4 23 -10 26 -18 11 -10 26
10 20 15 -5 18 -3 14 9 -9 23 5 39 22 25 12 -10 18 -6 16 12 -1 9 78 0 99 -11
10 -6 19 -15 19 -20 0 -6 9 -10 20 -10 11 0 20 -7 20 -15 0 -8 8 -15 19 -15
10 0 24 -6 30 -14 7 -8 20 -14 29 -14 9 0 25 -3 35 -7 15 -6 18 -4 15 11 -2
16 2 18 26 16 16 -2 33 3 38 10 6 10 13 8 27 -9 15 -18 20 -20 25 -8 7 20 36
19 36 0 0 -9 13 -18 31 -22 l32 -6 -24 -18 -24 -19 36 0 c24 0 39 -6 43 -15 3
-8 9 -14 13 -13 21 4 102 -16 100 -25 -1 -6 7 -13 18 -15 32 -7 47 -24 41 -48
-6 -24 9 -43 17 -22 2 7 8 9 13 5 5 -4 2 -12 -6 -17 -8 -5 -15 -15 -15 -21 0
-7 -6 -14 -13 -17 -7 -2 -11 1 -10 6 2 6 0 10 -4 11 -40 5 -44 -24 -8 -46 19
-11 26 -20 18 -24 -9 -6 -8 -11 1 -23 18 -22 -1 -21 -42 1 -18 9 -36 16 -41
15 -4 -2 -13 2 -20 7 -14 12 -291 41 -389 41 -75 0 -177 -23 -177 -40 0 -6 -7
-10 -15 -10 -8 0 -15 7 -15 15 0 19 31 50 50 50 10 0 15 9 15 27 -1 14 3 24 7
22 4 -3 8 1 8 9 0 10 -19 20 -52 28 -55 14 -90 53 -81 89 3 10 -1 21 -8 25 -9
6 -11 2 -7 -13 5 -17 0 -22 -26 -28 -17 -3 -37 -11 -43 -16 -7 -6 -20 -8 -28
-4 -9 3 -15 0 -15 -8 0 -7 -7 -19 -15 -26 -17 -14 -20 -40 -5 -40 6 0 10 7 10
16 0 13 3 14 15 4 14 -12 11 -35 -4 -26 -4 3 -13 1 -21 -5 -11 -6 -12 -9 -2
-9 7 0 10 -5 7 -10 -4 -6 5 -23 19 -37 14 -14 26 -30 26 -34 0 -5 6 -9 14 -9
9 0 16 -12 18 -32 2 -20 8 -32 15 -31 8 2 15 -13 19 -35 4 -29 14 -44 42 -62
21 -14 41 -30 45 -37 4 -7 13 -13 18 -13 6 0 27 -11 47 -25 20 -14 32 -25 27
-25 -6 0 -3 -5 5 -10 8 -5 20 -10 25 -10 6 0 3 5 -5 10 -13 9 -13 11 0 20 11
7 11 10 2 10 -8 0 -11 10 -9 28 3 16 10 26 18 25 10 -2 15 11 17 49 4 61 8 69
27 61 9 -3 15 1 15 11 0 18 15 22 25 6 4 -6 12 -4 21 5 9 8 21 15 29 15 7 0
21 3 31 7 10 3 15 2 12 -3 -4 -5 8 -10 25 -11 68 -4 87 -8 85 -18 -3 -11 -18
-12 -65 -2 -32 6 -32 6 -28 -31 3 -20 6 -44 8 -52 8 -40 77 -119 105 -120 6 0
12 -4 12 -10 0 -13 74 -11 130 3 31 8 48 20 57 37 7 14 13 21 13 15 1 -5 8 6
16 25 19 45 20 45 41 29 16 -13 17 -12 4 4 -16 20 -13 27 10 18 28 -11 5 -67
-34 -81 -28 -10 -30 -13 -12 -19 11 -4 56 -7 100 -7 68 1 80 4 83 19 2 10 -3
17 -12 17 -9 0 -13 6 -10 14 3 8 -4 23 -15 33 -12 9 -21 23 -21 30 0 7 -5 13
-11 13 -5 0 -7 5 -4 11 4 6 16 0 29 -16 14 -16 31 -25 42 -23 10 2 18 -2 17
-8 -1 -6 18 -19 42 -29 25 -10 47 -27 51 -37 6 -19 7 -19 25 -2 10 9 19 24 19
32 0 9 7 7 21 -9 l20 -24 -5 28 c-4 16 -2 27 4 27 6 0 8 5 5 10 -3 6 0 10 8
10 16 0 30 37 16 42 -6 2 -10 28 -11 58 -1 30 -6 58 -12 62 -5 3 -2 13 8 24
14 13 15 19 4 25 -7 5 -8 9 -3 9 6 0 11 11 11 24 1 17 -2 23 -12 19 -8 -3 -14
1 -14 11 0 10 6 13 15 10 17 -7 21 11 5 21 -8 5 -7 11 1 21 9 12 9 13 -3 9 -9
-4 -18 1 -22 10 -3 9 -11 13 -17 9 -7 -4 -9 -3 -5 4 3 5 0 13 -6 16 -10 3 -8
9 5 19 15 13 15 16 2 27 -8 7 -22 9 -31 6 -16 -6 -44 14 -44 32 0 6 -8 13 -17
16 -12 5 -13 10 -5 18 8 8 9 15 1 25 -8 8 -8 13 -1 13 5 0 8 9 5 20 -6 22 -28
27 -37 8 -3 -7 -3 -1 0 15 5 20 2 27 -10 27 -9 0 -16 4 -16 10 0 5 -7 7 -15 4
-10 -4 -15 0 -15 11 0 9 -4 14 -9 11 -13 -9 -42 4 -35 16 3 5 -3 12 -15 15
-11 3 -23 13 -26 23 -9 27 -53 35 -73 13 -18 -19 -85 -26 -79 -8 6 16 -16 32
-36 27 -11 -3 -23 1 -27 8 -7 11 -11 11 -24 1 -9 -8 -16 -9 -16 -3 0 6 6 12
13 15 6 2 9 8 5 12 -4 4 -23 2 -44 -5 -30 -10 -38 -10 -45 1 -5 8 -9 10 -9 5
0 -5 -6 -3 -14 3 -9 8 -21 8 -45 0 -38 -13 -49 -6 -30 17 12 15 11 16 -11 9
-14 -5 -31 -8 -37 -8 -7 0 -13 -5 -13 -11 0 -6 -5 -4 -10 4 -9 15 -13 16 -51
19 -16 1 -20 6 -16 21 4 15 0 20 -14 20 -11 0 -22 -7 -25 -15 -5 -13 -8 -13
-21 0 -8 8 -29 15 -46 16 -18 0 -49 2 -69 4 -21 2 -38 0 -38 -5z m-106 -345
c-7 -16 -24 -21 -24 -6 0 8 7 13 27 20 1 1 0 -6 -3 -14z m176 -225 c0 -5 -5
-10 -11 -10 -5 0 -7 5 -4 10 3 6 8 10 11 10 2 0 4 -4 4 -10z m539 -149 c17
-11 5 -31 -19 -31 -21 0 -34 15 -25 30 8 12 25 13 44 1z"/>
<path d="M4125 7480 c4 -6 11 -8 16 -5 14 9 11 15 -7 15 -8 0 -12 -5 -9 -10z"/>
<path d="M5885 7425 c-14 -20 -14 -20 -9 0 6 20 6 20 -11 0 -11 -14 -18 -17
-23 -8 -8 13 -52 6 -52 -8 0 -5 -8 -9 -17 -9 -15 0 -16 -2 -3 -10 10 -7 11
-10 2 -10 -7 0 -17 11 -22 25 -5 14 -12 25 -14 25 -3 0 -3 -6 0 -14 3 -8 1
-17 -4 -20 -5 -3 -12 4 -16 17 -5 18 -8 20 -16 7 -5 -8 -7 -24 -4 -35 4 -18 4
-18 -6 -2 -6 9 -19 17 -28 16 -10 0 -12 -3 -4 -6 20 -8 14 -23 -10 -23 -64 -1
-67 -2 -61 -16 3 -8 0 -14 -6 -14 -6 0 -11 5 -11 12 0 9 -3 9 -12 0 -7 -7 -17
-8 -29 -2 -23 13 -35 -5 -19 -26 10 -12 9 -14 -6 -13 -38 4 -54 -1 -54 -17 0
-10 -5 -14 -15 -10 -19 7 -30 -17 -20 -41 13 -31 17 -104 6 -117 -13 -16 -4
-27 15 -19 8 3 14 2 13 -3 -4 -23 3 -34 22 -34 11 0 17 -4 14 -10 -4 -6 9 -11
32 -11 22 -1 29 -4 16 -6 -12 -2 -26 -10 -32 -17 -8 -9 -2 -15 24 -25 38 -13
46 -35 18 -45 -15 -6 -15 -8 -3 -16 9 -5 19 -5 27 2 8 6 16 8 19 5 9 -9 -5
-27 -22 -27 -8 0 -14 -4 -14 -10 0 -5 7 -10 15 -10 18 0 20 -16 3 -23 -9 -4
-9 -6 -1 -6 8 -1 7 -10 -4 -31 -13 -27 -13 -34 -1 -53 8 -12 20 -41 27 -65 18
-64 38 -82 88 -82 28 0 43 4 43 13 0 9 3 8 9 -2 5 -8 14 -10 22 -5 9 5 7 -2
-4 -20 -10 -15 -16 -30 -13 -33 2 -3 1 -16 -4 -29 l-10 -24 78 4 c42 2 85 7
94 11 28 11 26 38 -4 68 -31 30 -36 42 -12 33 8 -3 13 -2 10 2 -2 4 2 18 10
32 7 14 13 19 14 12 0 -7 5 -10 10 -7 6 4 8 11 4 16 -13 21 91 84 120 73 8 -3
16 -28 19 -61 4 -34 14 -68 26 -84 12 -16 21 -30 21 -32 0 -3 19 -23 41 -46
37 -37 46 -41 91 -41 36 0 58 6 79 23 76 58 89 69 89 79 0 6 11 32 25 60 13
27 20 46 15 43 -6 -3 -10 3 -10 14 0 12 5 21 11 21 6 0 9 7 5 15 -4 10 1 15
14 15 11 0 20 -6 20 -13 0 -18 60 -52 69 -39 4 6 17 1 34 -14 23 -20 25 -25
13 -30 -9 -3 -16 -10 -16 -15 0 -14 -33 -44 -81 -73 -35 -21 -39 -26 -21 -26
12 0 22 5 22 10 0 6 17 10 38 10 27 0 44 8 66 30 25 25 34 28 77 25 50 -4 58
2 37 23 -20 20 -3 22 51 6 49 -14 54 -14 72 2 13 12 19 13 19 5 0 -8 10 -3 24
10 20 19 22 25 10 37 -8 7 -14 20 -14 28 0 8 -5 12 -10 9 -6 -3 -17 1 -26 10
-10 9 -23 13 -33 9 -42 -17 -51 -16 -51 5 0 18 -3 19 -25 11 -25 -9 -36 2 -15
15 6 4 8 11 4 16 -4 6 -11 6 -19 -1 -16 -13 -28 1 -20 22 3 8 -1 21 -10 28
-12 10 -15 10 -15 -4 0 -9 -7 -16 -16 -16 -8 0 -13 4 -10 9 10 15 -22 34 -49
29 -13 -3 -26 0 -28 6 -2 7 -11 7 -28 -1 -23 -11 -23 -12 -3 -18 19 -6 51 -65
34 -65 -5 0 -16 -3 -26 -7 -13 -5 -16 -2 -12 8 4 11 -7 14 -51 16 -31 1 -119
5 -196 8 -107 5 -159 3 -222 -9 -46 -8 -90 -13 -100 -9 -12 5 -15 2 -10 -10 5
-13 1 -17 -16 -17 -12 0 -33 -7 -46 -16 -15 -11 -26 -13 -33 -6 -13 13 -7 44
10 50 7 2 10 -2 6 -12 -3 -9 -1 -16 6 -16 6 0 9 4 5 9 -3 5 0 13 6 17 6 3 15
0 20 -7 4 -7 11 -10 15 -6 4 4 0 15 -9 24 -16 18 -17 21 -17 49 0 10 -6 14
-15 10 -8 -3 -15 -1 -15 5 0 5 6 12 13 15 15 5 19 34 5 34 -4 0 -8 -6 -8 -14
0 -21 -17 -29 -37 -17 -16 10 -16 11 5 17 21 6 22 8 6 25 -9 10 -21 16 -25 13
-5 -3 -9 0 -9 6 0 8 7 9 18 5 37 -16 62 -17 90 -3 26 13 30 13 41 -1 6 -9 9
-10 6 -3 -4 7 -3 12 2 11 22 -4 22 3 -3 26 -29 27 -24 30 34 25 12 -1 22 4 22
12 0 7 8 22 17 33 13 16 15 17 10 3 -4 -10 -2 -18 3 -18 6 0 10 5 10 10 0 6 9
10 20 10 10 0 25 10 31 22 8 14 14 18 17 10 2 -6 9 -12 17 -12 7 0 18 -6 25
-14 6 -8 18 -12 26 -9 19 7 8 23 -17 23 -10 0 -19 4 -19 9 0 11 47 24 59 16 5
-3 11 2 15 10 6 18 37 20 54 3 8 -8 15 -8 27 2 8 7 24 10 35 7 11 -3 22 -1 25
4 4 5 27 15 53 23 32 10 39 15 23 15 -24 1 -24 1 -5 16 19 14 18 14 -4 15 -12
0 -30 9 -39 19 -9 11 -22 17 -29 14 -8 -3 -14 1 -14 9 0 15 -34 48 -50 48 -5
0 -12 5 -16 12 -5 8 -2 9 9 5 12 -5 17 -1 17 13 0 20 11 26 23 13 4 -3 2 -12
-5 -20 -8 -10 -8 -16 0 -24 7 -5 10 -6 7 -3 -3 4 0 13 5 19 13 16 2 45 -16 45
-8 0 -17 -7 -20 -15 -5 -12 -10 -13 -20 -4 -8 6 -11 16 -7 22 3 5 2 7 -4 4 -6
-4 -19 0 -29 8 -18 14 -18 14 5 15 49 0 10 12 -44 13 -30 1 -55 4 -55 8 0 3
-11 4 -25 1 -14 -2 -22 -8 -19 -13 3 -5 -1 -9 -10 -9 -8 0 -17 6 -19 13 -4 9
-7 9 -15 -1 -10 -14 -45 -5 -36 9 3 5 1 9 -5 9 -5 0 -12 -6 -15 -12 -5 -10 -7
-10 -12 0 -5 10 -10 9 -26 -4 -16 -15 -21 -16 -28 -4 -13 21 -58 18 -75 -5z
m-221 -419 c-6 -16 -8 -17 -16 -2 -11 19 0 42 13 29 6 -6 7 -18 3 -27z m961
-116 c-3 -5 -13 -10 -21 -10 -8 0 -12 5 -9 10 3 6 13 10 21 10 8 0 12 -4 9
-10z m-829 -27 c-3 -3 -13 -2 -23 2 -17 7 -17 8 2 15 19 7 34 -5 21 -17z m24
-48 c-7 -9 -15 -13 -17 -11 -7 7 7 26 19 26 6 0 6 -6 -2 -15z m882 -13 c-19
-6 -44 6 -37 18 4 7 14 6 28 -2 14 -7 17 -13 9 -16z m-388 -18 c28 -11 18 -34
-14 -34 -18 0 -30 5 -30 13 0 25 15 32 44 21z"/>
<path d="M6325 7439 c-4 -6 -5 -12 -2 -15 2 -3 7 2 10 11 7 17 1 20 -8 4z"/>
<path d="M6430 7280 c20 -13 33 -13 25 0 -3 6 -14 10 -23 10 -15 0 -15 -2 -2
-10z"/>
<path d="M3920 7188 c0 -4 19 -8 42 -8 23 0 38 3 34 7 -9 10 -76 10 -76 1z"/>
<path d="M3570 7156 c0 -9 5 -16 10 -16 6 0 10 4 10 9 0 6 -4 13 -10 16 -5 3
-10 -1 -10 -9z"/>
<path d="M6255 7130 c3 -5 8 -10 11 -10 2 0 4 5 4 10 0 6 -5 10 -11 10 -5 0
-7 -4 -4 -10z"/>
<path d="M4323 7105 c0 -8 4 -12 9 -9 4 3 8 9 8 15 0 5 -4 9 -8 9 -5 0 -9 -7
-9 -15z"/>
<path d="M3731 7093 c0 -12 2 -28 5 -37 7 -17 34 -22 34 -6 0 5 6 7 14 4 8 -3
17 -1 21 5 3 6 -1 11 -9 11 -14 0 -20 12 -17 33 0 4 -3 7 -9 7 -5 0 -10 -11
-10 -25 0 -34 -18 -32 -23 3 -3 20 -4 22 -6 5z"/>
<path d="M3937 6990 c3 -11 9 -17 15 -14 5 3 4 12 -3 20 -16 19 -18 18 -12 -6z"/>
<path d="M6138 7003 c6 -2 18 -2 25 0 6 3 1 5 -13 5 -14 0 -19 -2 -12 -5z"/>
<path d="M5990 6980 c0 -5 5 -10 10 -10 6 0 10 5 10 10 0 6 -4 10 -10 10 -5 0
-10 -4 -10 -10z"/>
<path d="M6341 6951 l-24 -18 38 -7 c20 -4 40 -5 43 -2 3 3 -2 6 -11 6 -15 0
-22 11 -18 33 1 10 -1 9 -28 -12z"/>
<path d="M6397 6949 c7 -7 15 -10 18 -7 3 3 -2 9 -12 12 -14 6 -15 5 -6 -5z"/>
<path d="M8143 6932 c-43 -27 -68 -60 -38 -48 8 3 15 1 15 -5 0 -6 12 -10 28
-9 42 3 50 1 49 -12 -2 -55 4 -78 20 -78 13 0 14 3 5 12 -17 17 -15 28 6 29
11 0 12 2 4 6 -10 4 -10 8 -1 19 6 7 9 21 5 29 -3 9 -1 24 6 34 32 52 -31 67
-99 23z"/>
<path d="M6465 6942 c-28 -6 -39 -18 -22 -25 8 -3 23 0 34 8 21 16 16 23 -12
17z"/>
<path d="M6515 6930 c-3 -5 1 -10 9 -10 9 0 16 5 16 10 0 6 -4 10 -9 10 -6 0
-13 -4 -16 -10z"/>
<path d="M5936 6905 c4 -8 1 -15 -5 -15 -6 0 -11 -5 -11 -11 0 -8 4 -8 14 0 8
6 18 11 22 10 5 -1 16 -1 24 0 20 1 -3 24 -30 28 -14 2 -18 -2 -14 -12z"/>
<path d="M6480 6910 c0 -5 5 -10 10 -10 6 0 10 5 10 10 0 6 -4 10 -10 10 -5 0
-10 -4 -10 -10z"/>
<path d="M5710 6630 c-9 -6 -10 -10 -3 -10 6 0 15 5 18 10 8 12 4 12 -15 0z"/>
<path d="M6661 6624 c0 -11 3 -14 6 -6 3 7 2 16 -1 19 -3 4 -6 -2 -5 -13z"/>
<path d="M6540 6580 c0 -5 5 -10 11 -10 5 0 7 5 4 10 -3 6 -8 10 -11 10 -2 0
-4 -4 -4 -10z"/>
<path d="M4390 6470 c0 -5 7 -10 16 -10 8 0 12 5 9 10 -3 6 -10 10 -16 10 -5
0 -9 -4 -9 -10z"/>
<path d="M7921 6394 c0 -11 3 -14 6 -6 3 7 2 16 -1 19 -3 4 -6 -2 -5 -13z"/>
<path d="M4788 5546 c-10 -7 -18 -16 -18 -19 0 -3 -12 -18 -26 -32 -19 -19
-23 -31 -18 -48 4 -12 7 -30 6 -40 0 -10 4 -15 10 -11 7 5 9 0 6 -14 -4 -12
-2 -22 3 -22 5 0 9 -6 9 -13 0 -36 109 -88 137 -66 7 6 21 8 30 5 10 -4 14 -4
10 0 -4 4 5 13 19 21 29 14 59 1 50 -22 -8 -22 15 -35 38 -23 15 8 21 8 24 -1
2 -6 8 -9 12 -6 5 3 14 -4 20 -15 8 -15 8 -20 -2 -20 -8 0 -5 -5 5 -11 14 -8
16 -14 6 -25 -9 -11 -9 -17 1 -29 6 -8 9 -18 6 -23 -3 -5 8 -9 25 -8 31 1 58
29 39 41 -13 8 -13 55 0 55 6 0 11 15 11 33 0 61 6 94 22 117 15 22 13 50 -4
50 -5 0 -9 4 -9 8 0 18 30 8 37 -12 6 -20 7 -20 13 4 5 23 14 26 60 21 6 0 10
-8 10 -16 0 -8 3 -14 8 -14 4 1 20 1 36 0 22 -1 27 -4 21 -18 -5 -14 -3 -15 6
-6 13 12 69 -2 69 -18 0 -5 10 -9 21 -9 19 0 21 4 16 37 -5 27 -20 49 -58 85
-28 26 -61 49 -73 49 -37 3 -91 -3 -96 -10 -3 -3 -26 -18 -52 -31 -51 -26 -56
-44 -25 -80 9 -11 13 -20 9 -20 -9 0 -34 16 -32 21 4 12 -14 39 -26 39 -17 0
-18 12 -4 26 7 7 -7 15 -45 23 -30 7 -55 16 -55 20 0 8 -49 8 -70 -1 -35 -14
-59 -15 -64 -3 -3 8 3 16 12 18 12 3 10 5 -6 6 -19 1 -22 -3 -17 -21 l6 -23
-17 23 c-9 12 -25 22 -35 22 -11 0 -19 5 -19 10 0 14 -22 12 -42 -4z m262
-266 c0 -5 -5 -10 -11 -10 -5 0 -7 5 -4 10 3 6 8 10 11 10 2 0 4 -4 4 -10z"/>
<path d="M5236 5372 c-3 -6 1 -13 10 -16 23 -9 28 -2 10 13 -8 7 -17 8 -20 3z"/>
<path d="M5565 5330 c-10 -11 -13 -20 -8 -20 13 0 38 29 31 35 -3 3 -13 -4
-23 -15z"/>
<path d="M4970 5290 c0 -5 5 -10 10 -10 6 0 10 5 10 10 0 6 -4 10 -10 10 -5 0
-10 -4 -10 -10z"/>
<path d="M3831 5164 c0 -11 3 -14 6 -6 3 7 2 16 -1 19 -3 4 -6 -2 -5 -13z"/>
<path d="M3920 5115 c10 -12 10 -15 -3 -15 -8 0 -18 6 -20 13 -4 9 -6 9 -6 0
-1 -7 8 -17 18 -23 21 -11 51 -4 51 12 0 6 -6 6 -14 -1 -12 -10 -13 -8 -9 8 4
15 1 21 -12 21 -14 0 -15 -3 -5 -15z"/>
<path d="M3877 5073 c-3 -7 -3 -16 2 -40 0 -4 8 2 16 13 15 18 15 18 9 -8 -3
-15 -2 -33 2 -40 5 -7 7 -23 6 -35 -2 -14 7 -33 25 -50 15 -16 27 -32 25 -36
-1 -5 2 -6 8 -2 6 3 14 -3 18 -14 4 -11 11 -21 17 -23 5 -2 11 -15 11 -30 1
-19 18 -45 54 -80 108 -110 105 -105 93 -130 -6 -13 -14 -40 -17 -61 -4 -31
-19 -51 -92 -119 -77 -73 -180 -148 -203 -148 -5 0 -14 -7 -21 -15 -11 -13
-29 -17 -140 -30 -174 -21 -191 -25 -247 -56 -123 -67 -274 -196 -299 -254
-22 -54 -48 -74 -116 -90 -35 -8 -101 -16 -146 -17 -45 -2 -82 -6 -82 -10 0
-5 -18 -8 -40 -8 -22 0 -40 -4 -40 -9 0 -5 -12 -12 -26 -15 -40 -10 -124 -49
-124 -57 0 -4 -13 -10 -30 -14 -26 -6 -117 -46 -173 -76 -11 -6 -21 -9 -23 -6
-2 2 -32 -11 -67 -30 -99 -53 -268 -133 -276 -130 -9 3 -85 -36 -89 -45 -2 -5
-10 -8 -19 -8 -8 0 -27 -9 -43 -20 -15 -10 -45 -22 -67 -26 -28 -4 -45 -13
-53 -29 -7 -13 -24 -25 -39 -29 -32 -6 -121 -86 -121 -108 0 -18 -43 -32 -72
-22 -13 4 -18 2 -14 -4 5 -9 -29 -26 -48 -23 -5 1 -6 -5 -2 -14 4 -11 -4 -25
-24 -42 -17 -13 -30 -33 -30 -44 0 -10 -4 -19 -10 -19 -5 0 -10 -7 -10 -15 0
-8 -4 -15 -10 -15 -5 0 -10 -6 -10 -13 0 -7 -8 -20 -17 -29 -10 -8 -27 -27
-38 -42 -11 -14 -28 -36 -38 -47 -9 -12 -17 -28 -17 -34 0 -7 43 -72 95 -144
325 -452 742 -877 1206 -1231 113 -86 461 -320 526 -354 29 -15 266 -16 2971
-16 l2939 0 79 48 c648 394 1238 941 1687 1565 l97 135 0 66 c0 36 -4 65 -9
64 -10 -3 -39 28 -91 95 -19 25 -40 47 -46 49 -15 4 -134 144 -134 157 0 10
-14 15 -32 12 -5 0 -8 4 -8 9 0 13 -49 60 -61 60 -5 0 -19 9 -31 19 -70 60
-84 71 -90 71 -3 0 -21 13 -38 29 -49 44 -63 55 -90 68 -31 16 -51 28 -114 71
-26 19 -57 35 -68 37 -12 3 -28 10 -37 18 -9 7 -28 19 -43 26 -34 17 -41 48
-27 108 15 59 23 71 57 76 26 4 26 4 -3 6 -24 1 -34 9 -50 38 -11 21 -30 43
-42 49 -13 6 -20 13 -17 17 7 6 -32 47 -45 47 -5 0 -11 4 -13 8 -4 11 -152 72
-175 72 -39 0 -466 133 -492 154 -7 6 -19 11 -25 11 -27 0 -146 39 -146 47 0
5 -4 7 -9 4 -4 -3 -39 3 -77 13 -116 31 -225 43 -351 36 -65 -4 -125 -8 -133
-11 -8 -2 -28 3 -44 11 -15 8 -37 15 -47 15 -14 0 -26 14 -39 46 -11 25 -20
50 -20 55 0 6 -15 29 -32 53 -40 52 -144 109 -233 126 -33 6 -135 14 -227 17
-113 4 -168 9 -168 17 0 6 -9 29 -19 51 -11 22 -35 73 -53 112 -33 72 -53 89
-65 56 -7 -21 -96 -154 -123 -186 -10 -12 -28 -33 -39 -46 -12 -13 -21 -28
-21 -33 0 -4 -6 -8 -14 -8 -7 0 -17 -10 -21 -22 -4 -14 -8 -18 -12 -10 -8 21
-36 14 -30 -7 3 -12 -3 -27 -14 -37 -17 -16 -19 -16 -19 -1 0 10 5 17 10 17 7
0 7 6 0 20 -11 20 -60 29 -60 11 0 -18 -73 -82 -82 -73 -6 6 -20 5 -36 -4 -14
-7 -30 -10 -36 -7 -18 12 -56 9 -56 -4 0 -12 -13 -17 -32 -14 -5 0 -8 -3 -8
-9 0 -5 -6 -7 -14 -4 -8 3 -25 -6 -37 -21 -19 -21 -29 -24 -52 -19 -19 4 -27
3 -23 -4 3 -6 -8 -14 -26 -18 -18 -4 -36 -9 -40 -10 -5 -1 -13 -2 -19 -3 -5 0
-7 -7 -3 -13 5 -10 4 -10 -6 -1 -10 9 -19 9 -42 -3 -16 -8 -26 -19 -23 -23 10
-18 -75 -34 -87 -17 -9 13 -38 -12 -33 -27 2 -7 -11 -22 -29 -33 -28 -18 -33
-19 -32 -6 2 9 10 18 19 21 13 5 14 9 2 24 -9 12 -15 15 -20 7 -4 -6 -4 -14
-1 -17 3 -3 -2 -12 -12 -19 -10 -8 -12 -13 -5 -14 9 0 10 -7 3 -24 -5 -13 -6
-27 -3 -30 4 -3 -5 -6 -18 -6 -33 -1 -63 -25 -57 -47 6 -21 -17 -47 -32 -38
-6 3 -10 3 -10 -2 0 -4 -7 -17 -16 -28 -13 -17 -16 -18 -24 -5 -9 13 -10 13
-10 0 -1 -31 -16 -43 -39 -31 -18 10 -21 9 -21 -9 0 -14 -7 -20 -21 -20 -13 0
-18 4 -14 13 4 6 0 4 -8 -5 -8 -10 -19 -18 -26 -18 -6 0 -14 -7 -18 -16 -3 -8
-12 -13 -19 -10 -8 3 -14 1 -14 -4 0 -5 -7 -7 -16 -3 -10 4 -22 0 -29 -10 -15
-21 -93 -39 -116 -26 -13 6 -22 4 -34 -7 -12 -13 -19 -14 -30 -4 -12 10 -18
10 -30 0 -8 -7 -15 -9 -15 -5 0 4 -11 0 -24 -9 -14 -9 -27 -12 -30 -7 -3 4
-36 7 -73 6 -37 -2 -72 1 -78 5 -9 7 -135 22 -178 21 -11 0 -17 5 -14 12 3 7
-7 13 -23 14 -17 1 -30 -4 -34 -12 -4 -13 -11 -12 -41 5 -19 11 -35 15 -35 10
0 -6 -11 -10 -25 -10 -18 0 -23 -4 -19 -15 8 -19 -10 -20 -28 -1 -12 12 -20
12 -53 0 -22 -7 -42 -10 -45 -5 -5 7 -42 24 -48 21 -2 -1 -10 7 -18 17 -7 10
-14 13 -14 7 0 -7 -7 -15 -16 -18 -12 -5 -15 -2 -10 9 4 10 2 14 -5 9 -6 -4
-15 -1 -19 5 -4 7 -19 13 -33 15 -15 1 -35 12 -45 24 -11 12 -22 18 -26 15 -4
-4 -4 0 -1 9 5 13 0 19 -19 24 -14 3 -26 11 -26 16 0 6 -7 8 -15 4 -8 -3 -25
5 -39 19 -14 14 -30 25 -36 25 -5 0 -10 7 -10 16 0 8 -5 12 -10 9 -12 -8 -40
18 -40 37 0 17 -57 68 -65 59 -4 -3 -5 -1 -3 4 1 6 -8 25 -22 43 -13 18 -24
43 -25 55 0 13 -13 35 -28 51 -22 22 -26 31 -16 42 7 8 9 18 5 21 -4 4 -11 1
-16 -7 -7 -11 -10 -6 -10 18 0 20 -6 35 -15 38 -8 4 -15 13 -15 21 0 7 -6 13
-12 11 -19 -3 -59 22 -53 33 4 5 -3 9 -15 9 -12 0 -18 5 -15 10 3 6 -1 10 -10
10 -21 0 -67 35 -58 44 3 3 -3 6 -15 6 -15 0 -24 8 -28 24 -3 15 -14 26 -27
28 -12 2 -21 7 -19 11 2 5 -7 17 -19 28 -18 15 -19 21 -9 34 16 19 6 47 -15
39 -9 -4 -15 -3 -14 2 5 18 -24 62 -47 75 -13 7 -24 20 -24 30 0 19 -29 90
-30 72 0 -6 -9 -9 -20 -6 -13 3 -20 0 -20 -8 0 -9 -3 -10 -8 -3 -9 13 -54 44
-64 44 -4 0 -9 -3 -11 -7z m129 -57 c9 -9 10 -17 4 -21 -5 -3 -10 -1 -10 5 0
6 -4 9 -8 6 -5 -3 -9 1 -9 9 0 19 5 19 23 1z m3094 -460 c0 -2 -7 -6 -15 -10
-8 -3 -15 -1 -15 4 0 6 7 10 15 10 8 0 15 -2 15 -4z m65 -96 c-3 -5 -12 -10
-18 -10 -7 0 -6 4 3 10 19 12 23 12 15 0z m-53 -78 c-21 -6 -23 2 -9 31 l12
27 5 -28 c4 -18 1 -28 -8 -30z m-13 -78 c-9 -11 -8 -18 2 -31 13 -17 12 -17
-4 -4 -10 8 -16 22 -14 33 3 10 1 21 -5 24 -5 3 -2 15 9 26 18 20 18 20 21 -6
2 -15 -2 -34 -9 -42z m-19 -49 c11 -13 8 -15 -19 -15 -17 0 -31 -4 -31 -10 0
-5 -4 -10 -10 -10 -14 0 -13 23 2 38 16 16 43 15 58 -3z m4 -84 c4 -5 2 -11
-2 -13 -5 -1 -12 -20 -15 -41 -3 -22 -2 -35 4 -32 5 4 9 -1 9 -9 0 -9 -4 -16
-10 -16 -5 0 -10 -7 -10 -16 0 -9 -5 -12 -12 -8 -7 5 -8 3 -4 -5 5 -7 0 -21
-9 -31 -10 -11 -15 -26 -11 -35 3 -9 2 -13 -4 -10 -6 3 -10 2 -10 -4 0 -5 6
-11 13 -14 6 -2 9 -8 4 -12 -4 -5 -13 -3 -19 3 -19 19 -26 14 -20 -14 3 -19 0
-26 -15 -30 -15 -4 -19 -12 -15 -30 2 -13 8 -26 12 -29 13 -8 -1 -45 -16 -45
-8 0 -14 -7 -14 -15 0 -8 5 -14 12 -13 6 2 14 -5 16 -14 2 -13 -3 -18 -20 -18
-18 0 -20 -2 -8 -9 8 -6 18 -7 24 -4 5 3 6 1 2 -6 -4 -6 -16 -9 -27 -6 -14 5
-17 3 -13 -10 4 -10 -1 -22 -16 -32 -16 -11 -19 -18 -10 -23 20 -12 2 -29 -22
-22 -22 5 -22 5 -6 -20 16 -25 16 -27 0 -34 -9 -4 -23 -6 -31 -5 -10 2 -12 -5
-8 -26 4 -15 4 -22 1 -15 -9 19 -34 -5 -34 -32 0 -12 -5 -27 -12 -34 -9 -9 -9
-12 1 -12 8 0 10 -7 5 -22 -6 -22 -6 -22 13 -5 11 9 25 17 33 17 23 0 -36 -39
-66 -43 -16 -2 -29 -10 -29 -18 0 -8 6 -13 13 -11 7 1 2 -14 -12 -37 -14 -21
-22 -42 -18 -46 4 -5 0 -6 -9 -2 -12 4 -16 1 -12 -13 3 -12 11 -16 26 -12 l22
5 -23 -25 c-15 -17 -20 -31 -16 -43 6 -14 4 -17 -9 -12 -16 6 -16 5 -1 -18 10
-15 12 -25 5 -25 -6 0 -11 -9 -11 -20 0 -11 -5 -20 -11 -20 -6 0 -8 -8 -4 -19
4 -14 1 -19 -12 -17 -12 1 -17 -5 -15 -17 2 -10 -8 -30 -22 -44 -14 -14 -23
-29 -20 -34 3 -5 -2 -9 -11 -9 -11 0 -14 -6 -9 -24 5 -21 3 -23 -22 -18 -17 3
-25 1 -21 -5 4 -6 -1 -17 -10 -24 -13 -11 -17 -11 -20 -2 -3 8 -19 -2 -44 -25
-42 -41 -50 -58 -22 -48 15 6 15 5 -1 -13 -10 -11 -23 -18 -29 -14 -6 4 -8 0
-4 -10 3 -10 2 -17 -2 -17 -5 0 -12 6 -14 13 -3 7 -6 5 -6 -5 -1 -10 -8 -18
-16 -18 -8 0 -15 -8 -15 -17 0 -14 -2 -15 -9 -4 -7 11 -10 9 -16 -8 -4 -12 -2
-28 4 -34 6 -8 6 -18 1 -27 -8 -13 -10 -13 -10 0 0 19 -16 1 -25 -29 -5 -16
-4 -21 4 -17 17 11 13 -20 -4 -34 -17 -14 -3 -40 21 -40 8 0 14 -4 14 -10 0
-5 -7 -10 -15 -10 -8 0 -12 -6 -9 -13 5 -13 -22 -45 -30 -36 -11 12 -16 69 -6
69 8 0 8 6 -1 21 -16 31 -27 7 -23 -51 3 -46 -2 -55 -31 -59 -5 0 -10 3 -10 8
0 18 -12 21 -12 4 -2 -37 6 -47 25 -31 22 20 52 30 52 18 0 -5 -6 -13 -13 -17
-8 -4 -17 -17 -20 -27 -4 -10 -10 -16 -14 -13 -3 4 -12 2 -19 -4 -9 -7 -18 -4
-33 12 -26 28 -28 6 -3 -25 9 -13 24 -20 32 -18 13 5 13 3 1 -12 -8 -9 -20
-15 -27 -12 -8 3 -18 -8 -25 -29 -7 -19 -16 -32 -21 -29 -5 3 -6 9 -3 14 3 4
-1 13 -9 19 -12 10 -13 6 -5 -26 5 -23 4 -39 -1 -41 -6 -2 -10 -10 -10 -18 0
-23 -28 -4 -52 34 -12 21 -35 49 -52 65 -124 111 -180 166 -192 190 -8 15 -19
25 -24 22 -5 -3 -18 8 -29 24 -24 33 -27 48 -8 34 23 -17 67 -14 69 5 2 25 4
35 12 54 5 10 6 23 3 30 -3 8 -11 -1 -18 -19 -8 -18 -17 -33 -22 -33 -4 0 -6
4 -2 9 3 5 1 12 -5 16 -17 10 -11 33 8 31 12 -1 16 5 15 22 -2 13 1 21 5 18 5
-3 16 4 25 15 9 10 13 19 8 19 -5 0 -11 11 -13 24 -3 17 0 23 11 22 11 -1 15
6 14 22 -2 12 3 22 10 23 6 0 2 4 -10 9 -24 10 -51 50 -33 50 5 0 10 -7 10
-15 0 -8 7 -15 15 -15 18 0 19 12 3 28 -10 10 -10 17 0 32 15 24 16 57 2 65
-6 4 1 16 17 28 15 12 29 25 31 29 2 5 15 5 29 2 22 -6 24 -4 18 15 -4 12 -2
21 4 21 6 0 11 -11 11 -25 0 -14 5 -25 12 -25 6 0 8 3 5 7 -4 3 -2 12 3 19 8
8 6 17 -6 29 -15 14 -15 18 -3 26 19 12 29 11 29 -2 0 -5 -5 -7 -11 -3 -7 4
-10 1 -7 -7 3 -8 11 -13 17 -11 9 2 9 -3 1 -17 -13 -26 -13 -31 5 -31 8 0 12
6 9 14 -3 8 0 17 6 21 7 4 14 -2 17 -14 4 -16 9 -19 18 -11 18 15 49 2 35 -15
-14 -17 -3 -24 52 -31 24 -4 45 -10 48 -14 3 -4 17 -9 32 -12 19 -4 25 -1 21
9 -3 7 -9 11 -13 8 -5 -3 -11 -1 -14 4 -8 12 14 61 26 61 5 0 7 4 4 9 -4 5 0
12 6 14 7 3 5 6 -6 6 -23 1 -12 16 12 17 46 3 53 5 48 13 -3 5 1 14 9 21 22
18 10 28 -30 23 -27 -3 -35 0 -35 12 0 12 6 15 22 10 17 -6 20 -4 14 11 -7 17
-6 17 13 0 20 -18 21 -18 27 -1 4 10 3 25 -3 34 -14 22 -2 49 20 45 15 -2 16
0 6 12 -6 7 -15 12 -19 9 -5 -3 -11 -1 -14 4 -5 8 29 24 46 22 4 0 10 8 13 19
8 24 36 30 53 10 11 -13 12 -12 10 10 -2 17 4 28 22 37 14 7 22 13 18 14 -5 1
-12 3 -18 4 -5 1 -13 3 -17 4 -3 0 2 9 11 20 14 15 14 20 3 24 -7 3 -19 -4
-25 -14 -12 -19 -42 -27 -42 -11 0 4 15 22 33 40 26 25 36 29 45 20 16 -16 44
19 36 45 -4 12 0 17 15 17 23 0 28 15 9 23 -8 3 -6 6 5 6 9 1 17 9 17 18 0 12
3 14 11 6 8 -8 23 0 55 33 24 24 44 47 44 52 0 4 15 23 33 42 17 18 25 30 17
25 -10 -5 -12 -5 -5 3 6 5 19 12 30 14 13 2 20 11 20 27 0 15 8 27 20 31 28
10 76 60 69 71 -3 5 0 8 7 7 7 -2 15 6 17 17 2 11 15 30 28 42 13 12 24 27 24
33 0 5 3 9 8 8 14 -5 55 41 73 82 10 22 15 40 11 41 -4 0 3 4 16 10 13 5 20
13 17 19 -3 5 -2 10 4 10 5 0 12 -4 15 -9z m-71 -7 c9 -9 -21 -36 -33 -29 -17
10 -11 35 8 35 10 0 21 -3 25 -6z m-14 -336 c0 -28 -2 -30 -9 -13 -12 28 -12
45 0 45 6 0 10 -15 9 -32z m-679 -558 c0 -16 -4 -30 -10 -30 -5 0 -10 6 -10
14 0 8 -3 21 -6 30 -4 11 -1 16 10 16 11 0 16 -9 16 -30z m-55 -20 c-3 -5 -12
-10 -18 -10 -7 0 -6 4 3 10 19 12 23 12 15 0z m935 0 c0 -5 -4 -10 -10 -10 -5
0 -10 5 -10 10 0 6 5 10 10 10 6 0 10 -4 10 -10z m-1230 -135 c0 -5 -5 -3 -10
5 -5 8 -10 20 -10 25 0 6 5 3 10 -5 5 -8 10 -19 10 -25z m110 25 c0 -5 -7 -7
-15 -4 -8 4 -15 8 -15 10 0 2 7 4 15 4 8 0 15 -4 15 -10z m59 -19 c0 -9 -3
-11 -5 -4 -3 7 -12 9 -20 6 -8 -3 -14 1 -14 10 0 10 7 13 20 10 11 -3 20 -13
19 -22z m-289 -34 c0 -18 -2 -19 -10 -7 -13 20 -13 43 0 35 6 -3 10 -16 10
-28z m60 -27 c0 -13 -1 -13 -10 0 -5 8 -10 22 -10 30 0 13 1 13 10 0 5 -8 10
-22 10 -30z m-40 -21 c0 -5 -4 -9 -10 -9 -5 0 -10 7 -10 16 0 8 5 12 10 9 6
-3 10 -10 10 -16z m-33 -21 c-3 -8 -6 -5 -6 6 -1 11 2 17 5 13 3 -3 4 -12 1
-19z m348 2 c3 -5 1 -10 -4 -10 -6 0 -11 5 -11 10 0 6 2 10 4 10 3 0 8 -4 11
-10z m35 0 c0 -5 -5 -10 -11 -10 -5 0 -7 5 -4 10 3 6 8 10 11 10 2 0 4 -4 4
-10z m-390 -170 c0 -5 7 -10 15 -10 8 0 15 -7 15 -15 0 -14 -3 -13 -25 2 -25
19 -32 33 -15 33 6 0 10 -4 10 -10z m587 -196 c-3 -3 -12 -4 -19 -1 -8 3 -5 6
6 6 11 1 17 -2 13 -5z m-178 -940 c3 -16 1 -17 -13 -5 -19 16 -21 34 -3 29 6
-3 14 -13 16 -24z m-175 -125 c-3 -5 -10 -7 -15 -3 -5 3 -7 10 -3 15 3 5 10 7
15 3 5 -3 7 -10 3 -15z"/>
<path d="M6930 3840 c0 -5 5 -10 10 -10 6 0 10 5 10 10 0 6 -4 10 -10 10 -5 0
-10 -4 -10 -10z"/>
<path d="M6539 3494 c-9 -11 -7 -14 14 -14 32 0 44 16 17 23 -10 3 -24 -1 -31
-9z"/>
<path d="M6500 3461 c0 -5 5 -13 10 -16 6 -3 10 -2 10 4 0 5 -4 13 -10 16 -5
3 -10 2 -10 -4z"/>
<path d="M6534 3405 c-18 -13 -18 -14 4 -8 12 3 25 9 28 14 8 14 -10 11 -32
-6z"/>
<path d="M6710 3369 c0 -5 5 -7 10 -4 6 3 10 8 10 11 0 2 -4 4 -10 4 -5 0 -10
-5 -10 -11z"/>
<path d="M6560 3149 c0 -5 5 -7 10 -4 6 3 10 8 10 11 0 2 -4 4 -10 4 -5 0 -10
-5 -10 -11z"/>
<path d="M6360 3136 c0 -8 4 -17 8 -20 4 -2 8 4 8 15 0 10 -4 19 -8 19 -4 0
-8 -6 -8 -14z"/>
<path d="M6668 3125 c2 -14 8 -25 13 -25 5 0 8 11 7 25 -1 14 -8 25 -14 25 -7
0 -9 -10 -6 -25z"/>
<path d="M6626 3116 c3 -9 11 -16 16 -16 13 0 5 23 -10 28 -7 2 -10 -2 -6 -12z"/>
<path d="M6297 3060 c4 -15 1 -18 -16 -15 -11 2 -24 -1 -27 -7 -4 -7 -2 -8 5
-4 6 4 14 0 17 -9 5 -12 10 -13 20 -4 8 6 19 9 26 7 7 -3 21 4 31 14 16 17 16
18 -4 18 -11 0 -29 4 -39 10 -15 8 -17 6 -13 -10z"/>
<path d="M6600 3066 c0 -2 9 -6 20 -9 11 -3 18 -1 14 4 -5 9 -34 13 -34 5z"/>
<path d="M5925 3028 c-4 -9 1 -31 9 -49 l15 -34 -3 43 c-3 46 -12 63 -21 40z"/>
<path d="M6058 3023 c-24 -6 -23 -18 2 -20 11 -1 20 4 20 13 0 8 -1 13 -2 13
-2 -1 -11 -3 -20 -6z"/>
<path d="M5962 2993 c2 -12 14 -18 38 -19 l34 -1 -23 18 c-29 24 -54 25 -49 2z"/>
<path d="M6305 3000 c3 -5 8 -10 11 -10 2 0 4 5 4 10 0 6 -5 10 -11 10 -5 0
-7 -4 -4 -10z"/>
<path d="M5891 2958 c2 -25 -1 -43 -8 -45 -14 -5 4 -53 19 -53 5 0 7 4 3 9 -3
6 3 14 12 20 10 6 12 11 6 11 -7 0 -13 7 -13 16 0 14 3 14 15 4 12 -10 15 -10
15 4 0 9 -7 16 -15 16 -10 0 -15 10 -15 30 0 17 -5 30 -11 30 -6 0 -9 -17 -8
-42z"/>
<path d="M6090 2989 c0 -7 -8 -18 -17 -26 -16 -13 -16 -13 3 -4 23 11 40 41
24 41 -6 0 -10 -5 -10 -11z"/>
<path d="M6430 2978 c0 -19 2 -20 10 -8 13 19 13 30 0 30 -5 0 -10 -10 -10
-22z"/>
<path d="M6145 2980 c-3 -5 1 -10 10 -10 9 0 13 5 10 10 -3 6 -8 10 -10 10 -2
0 -7 -4 -10 -10z"/>
<path d="M5990 2950 c-9 -6 -10 -10 -3 -10 6 0 15 5 18 10 8 12 4 12 -15 0z"/>
<path d="M6118 2933 c7 -3 16 -2 19 1 4 3 -2 6 -13 5 -11 0 -14 -3 -6 -6z"/>
<path d="M5975 2919 c-4 -6 -5 -12 -2 -15 2 -3 7 2 10 11 7 17 1 20 -8 4z"/>
<path d="M5904 2783 c4 -9 1 -20 -6 -25 -10 -6 -10 -8 -1 -8 7 0 17 9 22 19 8
15 7 20 -5 25 -12 5 -15 2 -10 -11z"/>
<path d="M5795 2540 c-3 -5 -1 -10 4 -10 6 0 11 5 11 10 0 6 -2 10 -4 10 -3 0
-8 -4 -11 -10z"/>
<path d="M6085 2360 c4 -6 11 -8 16 -5 14 9 11 15 -7 15 -8 0 -12 -5 -9 -10z"/>
<path d="M6124 2328 c4 -18 28 -16 34 2 4 13 3 13 -10 2 -11 -9 -18 -9 -21 -2
-3 6 -4 5 -3 -2z"/>
<path d="M4850 4953 c-25 -13 -51 -23 -59 -23 -7 0 -11 -6 -8 -14 6 -16 -9
-18 -115 -20 -40 0 -88 3 -105 7 -28 7 -33 6 -33 -10 0 -13 -8 -18 -30 -19
-17 -1 -32 -3 -34 -5 -2 -2 -6 -25 -9 -51 -5 -39 -4 -48 8 -48 8 0 16 -7 17
-15 0 -8 1 -21 2 -27 1 -17 26 -27 52 -21 12 2 25 0 28 -6 4 -6 25 -11 46 -11
30 0 40 -5 45 -20 3 -11 15 -20 26 -20 12 0 19 -7 19 -20 0 -13 7 -20 18 -20
20 0 82 -70 82 -93 0 -14 27 -40 72 -69 36 -24 77 -66 70 -72 -3 -3 4 -6 16
-6 12 0 22 -5 22 -11 0 -24 45 -54 76 -51 27 3 33 -1 38 -22 3 -14 10 -25 14
-24 21 6 83 -15 92 -32 10 -18 50 -24 50 -8 0 15 28 8 34 -8 5 -13 9 -14 21
-4 9 7 15 8 15 2 0 -18 39 -20 57 -2 16 15 20 15 41 2 15 -10 26 -11 35 -4 6
5 20 8 30 7 9 -2 17 1 17 7 0 6 12 8 26 5 18 -3 24 -1 20 9 -3 8 1 14 9 14 8
0 15 9 15 20 0 23 10 26 28 8 9 -9 12 -8 12 5 0 9 -8 17 -17 17 -13 0 -14 3
-6 11 6 6 9 17 6 24 -2 7 4 16 15 19 26 9 33 29 21 63 -7 22 -16 28 -42 30
-17 2 -33 7 -35 13 -4 11 -23 14 -21 3 3 -18 -2 -27 -9 -16 -5 8 -21 9 -55 2
-32 -6 -56 -5 -68 1 -15 8 -17 7 -13 -5 8 -20 -20 -20 -36 1 -8 8 -9 14 -4 12
15 -4 54 22 54 36 0 14 42 26 95 26 17 0 35 3 39 7 3 4 12 8 19 9 7 2 22 6 35
10 12 3 22 2 22 -4 0 -5 -10 -13 -22 -17 -18 -6 -9 -9 37 -14 33 -4 70 -12 82
-19 29 -16 36 -15 30 3 -4 8 -2 17 3 20 6 4 10 1 10 -4 0 -6 9 -11 20 -11 11
0 20 -6 20 -12 0 -9 3 -8 10 2 5 8 21 16 36 17 15 1 33 4 41 7 17 7 17 36 1
36 -9 0 -8 3 2 10 10 6 18 1 28 -21 16 -33 33 -39 25 -9 -3 11 0 20 6 20 6 0
11 -4 11 -9 0 -17 42 -19 58 -3 9 9 24 17 32 16 8 0 25 4 37 10 18 7 20 12 12
22 -8 10 -4 21 20 45 25 25 29 34 20 45 -9 11 -9 14 0 14 8 0 8 7 -3 21 -8 12
-12 28 -9 36 5 12 1 14 -16 8 -17 -5 -24 -2 -27 12 -4 15 -15 18 -62 17 -31
-1 -60 4 -64 9 -9 14 -40 -12 -31 -26 3 -6 1 -7 -6 -3 -9 6 -9 11 0 22 14 17
-2 19 -19 2 -10 -10 -17 -10 -32 0 -17 10 -20 10 -20 -4 0 -11 -6 -14 -21 -9
-22 7 -79 15 -137 18 -21 1 -31 6 -27 15 3 8 -6 12 -26 12 -17 0 -43 8 -57 19
-15 10 -44 21 -66 25 -21 4 -36 10 -32 13 9 9 -65 42 -100 45 -18 1 -32 5 -31
9 2 8 -9 8 -35 1 -10 -2 -18 -8 -18 -13 0 -5 -7 -6 -16 -2 -9 3 -27 -6 -45
-23 -27 -26 -37 -29 -99 -29 -57 0 -71 4 -87 21 -10 11 -35 29 -55 39 -21 9
-38 23 -38 30 0 23 -53 21 -100 -2z m-330 -223 c0 -5 -4 -10 -10 -10 -5 0 -10
5 -10 10 0 6 5 10 10 10 6 0 10 -4 10 -10z m920 -129 c-11 -22 -25 -27 -34
-12 -3 4 -17 6 -31 3 -33 -6 -32 6 2 19 20 7 29 6 35 -3 6 -10 11 -9 19 5 15
25 23 14 9 -12z m-600 -66 c-7 -9 -15 -13 -19 -10 -3 3 1 10 9 15 21 14 24 12
10 -5z m395 -56 c0 -8 4 -20 8 -26 9 -14 -12 -17 -50 -7 -25 7 -31 29 -10 38
9 5 9 7 -2 12 -11 5 -11 8 0 15 17 10 54 -12 54 -32z"/>
<path d="M4220 4730 c0 -5 5 -10 10 -10 6 0 10 5 10 10 0 6 -4 10 -10 10 -5 0
-10 -4 -10 -10z"/>
<path d="M7185 4640 c3 -5 8 -10 11 -10 2 0 4 5 4 10 0 6 -5 10 -11 10 -5 0
-7 -4 -4 -10z"/>
<path d="M6950 4560 c0 -5 5 -10 10 -10 6 0 10 5 10 10 0 6 -4 10 -10 10 -5 0
-10 -4 -10 -10z"/>
<path d="M5655 4440 c3 -5 8 -10 11 -10 2 0 4 5 4 10 0 6 -5 10 -11 10 -5 0
-7 -4 -4 -10z"/>
<path d="M6295 4250 c3 -5 8 -10 11 -10 2 0 4 5 4 10 0 6 -5 10 -11 10 -5 0
-7 -4 -4 -10z"/>
<path d="M5060 3989 c0 -5 5 -7 10 -4 6 3 10 8 10 11 0 2 -4 4 -10 4 -5 0 -10
-5 -10 -11z"/>
<path d="M1670 3546 c0 -2 7 -9 15 -16 13 -11 14 -10 9 4 -5 14 -24 23 -24 12z"/>
</g>
</svg>
